<?xml version="1.0" encoding="UTF-8"?><svg xmlns="http://www.w3.org/2000/svg" width="16" height="16" viewBox="0 0 16 16"><defs><linearGradient id="a" x1="57592.93" y1="-82149.79" x2="57762.63" y2="-82319.49" gradientTransform="matrix(.04 0 0 -.04 -2068.4 -2955.39)" gradientUnits="userSpaceOnUse"><stop offset="0" stop-color="#999"/><stop offset="1" stop-color="#666"/></linearGradient><linearGradient id="b" x1="57553.61" y1="-82260.87" x2="57802.03" y2="-82509.28" gradientTransform="matrix(.04 0 0 -.04 -2068.4 -2955.39)" gradientUnits="userSpaceOnUse"><stop offset="0" stop-color="#ffad00"/><stop offset="1" stop-color="#d68900"/></linearGradient></defs><path d="M5.4 6.84V4.46a1.15 1.15 0 0 1 1.13-1.13h2.94a1.15 1.15 0 0 1 1.13 1.13v2.38h1.73V4.46A2.87 2.87 0 0 0 9.47 1.6H6.53a2.87 2.87 0 0 0-2.86 2.86v2.38z" fill="url(#a)"/><path d="M13.36 13.82a.58.58 0 0 1-.58.58H3.23a.6.6 0 0 1-.59-.58V7.13a.58.58 0 0 1 .59-.58h9.55a.57.57 0 0 1 .57.58v6.69z" fill="url(#b)"/><path d="M3.22 12.56v-.7L4.82 10A.77.77 0 0 0 5 9.49.49.49 0 0 0 4.52 9a.48.48 0 0 0-.52.5h-.78a1.21 1.21 0 0 1 1.3-1.24 1.2 1.2 0 0 1 1.3 1.24 1.37 1.37 0 0 1-.46 1l-1.19 1.36h1.65v.7zM7.46 9v1.05h1.68v.74H7.46v1.73h-.84V8.29h2.81V9zM12.23 12.56l-.23-.75h-1.54l-.26.75h-.87l1.56-4.27h.65l1.56 4.27zm-1-3l-.54 1.56h1.06z" fill="#fff"/></svg>