<?xml version="1.0" encoding="UTF-8"?><svg xmlns="http://www.w3.org/2000/svg" xmlns:xlink="http://www.w3.org/1999/xlink" width="16" height="16" viewBox="0 0 16 16"><defs><linearGradient id="a" x1="57584.97" y1="-82134.18" x2="57770.58" y2="-82319.78" gradientTransform="matrix(.04 0 0 -.04 -2068.4 -2955.39)" gradientUnits="userSpaceOnUse"><stop offset="0" stop-color="#ccc"/><stop offset="1" stop-color="#b3b3b3"/></linearGradient><linearGradient id="b" x1="57541.97" y1="-82255.67" x2="57813.68" y2="-82527.37" xlink:href="#a"/></defs><path d="M5.16 6.73v-2.6a1.25 1.25 0 0 1 1.23-1.24h3.22a1.25 1.25 0 0 1 1.23 1.24v2.6h1.9v-2.6A3.15 3.15 0 0 0 9.61 1H6.39a3.14 3.14 0 0 0-3.13 3.13v2.6z" fill="url(#a)"/><path d="M13.86 14.37a.63.63 0 0 1-.63.63H2.78a.64.64 0 0 1-.64-.63V7.05a.64.64 0 0 1 .64-.64h10.44a.64.64 0 0 1 .64.64v7.32z" fill="url(#b)"/><path d="M3.22 12.56v-.7L4.82 10A.77.77 0 0 0 5 9.49.49.49 0 0 0 4.52 9a.48.48 0 0 0-.52.5h-.78a1.21 1.21 0 0 1 1.3-1.24 1.2 1.2 0 0 1 1.3 1.24 1.37 1.37 0 0 1-.46 1l-1.19 1.36h1.65v.7zM7.46 9v1.05h1.68v.74H7.46v1.73h-.84V8.29h2.81V9zM12.23 12.56l-.23-.75h-1.54l-.26.75h-.87l1.56-4.27h.65l1.56 4.27zm-1-3l-.54 1.56h1.06z" fill="#fff"/></svg>