<?xml version="1.0" encoding="utf-8"?>
<!-- Generator: Adobe Illustrator 20.0.0, SVG Export Plug-In . SVG Version: 6.00 Build 0)  -->
<svg version="1.1" id="_x35_5f65d26-6a10-4ce3-8ace-201268f08474"
	 xmlns="http://www.w3.org/2000/svg" xmlns:xlink="http://www.w3.org/1999/xlink" x="0px" y="0px" width="16px" height="16px"
	 viewBox="0 0 16 16" style="enable-background:new 0 0 16 16;" xml:space="preserve">
<style type="text/css">
	.st0{fill:#FFFFFF;}
	.st1{fill:url(#SVGID_1_);}
	.st2{fill:url(#SVGID_2_);}
</style>
<path class="st0" d="M2.9,1.9h10.2v12.2H2.9V1.9z"/>
<linearGradient id="SVGID_1_" gradientUnits="userSpaceOnUse" x1="2.01" y1="1.99" x2="14.01" y2="13.99">
	<stop  offset="0" style="stop-color:#CCCCCC"/>
	<stop  offset="1" style="stop-color:#B3B3B3"/>
</linearGradient>
<path class="st1" d="M13,2.2v11.5H3V2.2H13 M13.6,1.6H2.4v12.8h11.2L13.6,1.6z M12,4.1V3.5H4.1v0.6H12z M12,5.8V5.1H4.1v0.6L12,5.8z
	 M12,7.5V6.8H4.1v0.6L12,7.5z M12,9.2V8.5H4.1v0.6L12,9.2z M12,10.9v-0.6H4.1v0.6H12z M12,12.6V12H4.1v0.6H12z"/>
<g>
	<linearGradient id="SVGID_2_" gradientUnits="userSpaceOnUse" x1="8.2127" y1="4.747" x2="12.2705" y2="8.8048">
		<stop  offset="0" style="stop-color:#EDAD3B"/>
		<stop  offset="1" style="stop-color:#DBA049"/>
	</linearGradient>
	<path class="st2" d="M15.8,1.6c0,0,0.1-0.3-0.8-1S13.7,0,13.7,0c-0.5,0-0.7,0-1,0.3L6.3,9.1c0,0-0.1,0.1-0.1,0.1l0,0
		c-0.2,1.3-0.4,2.7-0.5,4.1c0.1,0.1,3-1.4,3.6-1.7h0.1c0,0,0.1-0.1,0.1-0.1l6.3-8.6C16.1,2.5,16.1,2,15.8,1.6z"/>
	<path class="st0" d="M7.5,12.2c0,0-0.4-0.8-1-0.7L6.2,12l0.5-2.9c0.4,0,0.8,0.1,1.2,0.3c0.4,0.1,0.7,0.4,1,0.7
		c0.3,0.4,0.5,0.8,0.6,1.2L7.5,12.2z"/>
</g>
</svg>
