<?xml version="1.0" encoding="UTF-8"?><svg xmlns="http://www.w3.org/2000/svg" xmlns:xlink="http://www.w3.org/1999/xlink" width="5.64mm" height="5.64mm" viewBox="0 0 16 16"><defs><clipPath id="b"><path d="M11.85 8.75S10.68 9.79 9.1 11c-.28 1.74-1.23 2.32-2.1 2.33a2.56 2.56 0 0 1-2.71-2 7.89 7.89 0 0 1 1.17.14c.58.1.37-.14.68-.8a2.21 2.21 0 0 1 1.24-.92l1.41-2.61 4.3-5.68-12-.07v13.25h14L15 3.8l-3.16 5z" fill="none"/></clipPath><linearGradient id="a" x1="3751.75" y1="-5395" x2="3949.75" y2="-5593" gradientTransform="matrix(.03 0 0 -.03 -115.19 -169.84)" gradientUnits="userSpaceOnUse"><stop offset="0" stop-color="#ccc"/><stop offset="1" stop-color="#b3b3b3"/></linearGradient><linearGradient id="c" x1="3643.5" y1="-5351.25" x2="4056" y2="-5763.75" xlink:href="#a"/><linearGradient id="d" x1="3883.54" y1="-5600.99" x2="4006.87" y2="-5724.32" xlink:href="#a"/><linearGradient id="e" x1="3896.37" y1="-5628.62" x2="3924.97" y2="-5657.23" xlink:href="#a"/><linearGradient id="f" x1="3930.96" y1="-5666.7" x2="3975.83" y2="-5711.58" xlink:href="#a"/><linearGradient id="g" x1="3921.92" y1="-5674.33" x2="3989.64" y2="-5742.05" xlink:href="#a"/><linearGradient id="h" x1="3920.62" y1="-5673.03" x2="3991.72" y2="-5744.13" xlink:href="#a"/><linearGradient id="i" x1="3694.82" y1="-5600.99" x2="3818.15" y2="-5724.32" xlink:href="#a"/><linearGradient id="j" x1="3707.65" y1="-5628.62" x2="3736.26" y2="-5657.23" xlink:href="#a"/><linearGradient id="k" x1="3742.24" y1="-5666.7" x2="3787.12" y2="-5711.58" xlink:href="#a"/><linearGradient id="l" x1="3733.21" y1="-5674.33" x2="3800.92" y2="-5742.05" xlink:href="#a"/><linearGradient id="m" x1="3731.91" y1="-5673.03" x2="3803.01" y2="-5744.13" xlink:href="#a"/><linearGradient id="n" x1="3975.76" y1="-5404.11" x2="4046.89" y2="-5475.24" xlink:href="#a"/><linearGradient id="o" x1="3865.8" y1="-5574.86" x2="3902.87" y2="-5611.93" gradientTransform="matrix(.03 0 0 -.03 -115.19 -169.84)" gradientUnits="userSpaceOnUse"><stop offset="0" stop-color="#b3b3b3"/><stop offset="1" stop-color="#999"/></linearGradient><linearGradient id="p" x1="3756.1" y1="-5670.91" x2="3862.47" y2="-5670.91" xlink:href="#a"/><linearGradient id="q" x1="3860.68" y1="-5598.76" x2="4024.61" y2="-5762.69" xlink:href="#a"/></defs><g clip-path="url(#b)"><path d="M1.6 1.91h12.9v12.14H1.6z" fill="#fff"/><path d="M13.2 5.44H2.86V4.8H13.2zm0 1.06H2.86v.64H13.2z" fill="url(#a)"/><path d="M1.2 1.6v12.8h13.6V1.6zm13 12.16H1.84V3.62h12.32zm-1-4.93H2.86v-.64H13.2z" fill="url(#c)"/><path d="M8.92 9.55h4.27v3.63H8.92z" fill="url(#d)"/><circle cx="9.95" cy="10.73" r=".65" fill="url(#e)"/><path d="M10.82 12.78l.45-.16.37-.64.43.28.25-.06.53-.44h.34v-.3l-.49-.27-.46.35-.59-.67-.79 1.35-.6-.3-1 .85 1-.19z" fill="url(#f)"/><path d="M13.19 13.2v-1.42h-.34l-.53.44-.25.06-.43-.28-.37.64-.45.16-.5-.18-1 .19-.41.37z" fill="url(#g)"/><path d="M13.19 13.2v-1.42h-.34l-.53.44-.25.06-.43-.28-.37.64-.45.16-.5-.18-1 .19-.41.37z" fill="url(#h)"/><path d="M2.88 9.55h4.27v3.63H2.88z" fill="url(#i)"/><circle cx="3.91" cy="10.73" r=".65" fill="url(#j)"/><path d="M4.78 12.78l.45-.16.37-.62.43.28.25-.06.53-.44h.34v-.3l-.49-.27-.46.35-.58-.67-.8 1.35-.6-.3-1 .85 1-.19z" fill="url(#k)"/><path d="M7.15 13.2v-1.42h-.34l-.53.44-.28.04-.4-.26-.37.64-.45.16-.5-.18-1 .19-.41.37z" fill="url(#l)"/><path d="M7.15 13.2v-1.42h-.34l-.53.44-.28.04-.4-.26-.37.64-.45.16-.5-.18-1 .19-.41.37z" fill="url(#m)"/></g><path d="M11.16 8.52L15.87 1a.61.61 0 0 0-.11-.86.62.62 0 0 0-.87.11l-5.41 7 1.68 1.28z" fill="url(#n)"/><path d="M10.82 8.62l-1.35-1-1.56 2.57.66.5z" fill="url(#o)"/><path d="M7.22 10.58a1 1 0 0 0-.49.82c0 .6-.35.61-.79.71a1.34 1.34 0 0 1-.94-.28s1.08 1.17 2 .94a1.78 1.78 0 0 0 1.37-1.14 1.33 1.33 0 0 0 0-.53s-.38-1-1.15-.52z" fill="url(#p)"/><path d="M9.8 15.61a1 1 0 0 1-1-1V12v-.36H7.08a.33.33 0 0 1-.3-.2c-.08-.18 0-.34.45-.84l3-3.15a1 1 0 0 1 1.41 0l3 3.15c.46.48.5.66.43.83a.34.34 0 0 1-.31.21h-1.6a3.21 3.21 0 0 0 0 .36v2.6a1 1 0 0 1-1 1z" fill="url(#q)"/><path d="M11 7.42a.69.69 0 0 1 .48.2l3 3.16c.26.27.42.49.35.49h-1.91c-.05 0-.1.3-.1.68v2.65a.68.68 0 0 1-.68.69H9.8a.69.69 0 0 1-.68-.69V12a1.57 1.57 0 0 0-.12-.73H7s.12-.22.38-.49l3-3.16a.67.67 0 0 1 .47-.2m0-.64a1.28 1.28 0 0 0-.93.4L7 10.33c-.13.14-.25.27-.33.37a.79.79 0 0 0-.18.81.64.64 0 0 0 .59.4h1.4v2.69a1.33 1.33 0 0 0 1.32 1.33h2.34a1.33 1.33 0 0 0 1.32-1.33v-2.69h1.38a.66.66 0 0 0 .6-.4.81.81 0 0 0-.16-.8l-.28-.38-3-3.15a1.29 1.29 0 0 0-.94-.4z" fill="#fff"/></svg>