<?xml version="1.0" encoding="UTF-8"?><svg xmlns="http://www.w3.org/2000/svg" width="16" height="16" viewBox="0 0 16 16"><defs><linearGradient id="a" x1="3675.06" y1="-5382.8" x2="4026.44" y2="-5734.19" gradientTransform="matrix(.03 0 0 -.03 -115.19 -169.84)" gradientUnits="userSpaceOnUse"><stop offset="0" stop-color="#196b99"/><stop offset="1" stop-color="#0d5c7f"/></linearGradient><linearGradient id="b" x1="57514.53" y1="-82321.9" x2="57620.31" y2="-82427.67" gradientTransform="matrix(.04 0 0 -.04 -2068.4 -2955.39)" gradientUnits="userSpaceOnUse"><stop offset="0" stop-color="#999"/><stop offset="1" stop-color="#666"/></linearGradient><linearGradient id="c" x1="57490.02" y1="-82391.14" x2="57644.86" y2="-82545.98" gradientTransform="matrix(.04 0 0 -.04 -2068.4 -2955.39)" gradientUnits="userSpaceOnUse"><stop offset="0" stop-color="#ffad00"/><stop offset="1" stop-color="#d68900"/></linearGradient></defs><path d="M14.43 11.78a2.65 2.65 0 0 1-2.65 2.65H4.29a2.66 2.66 0 0 1-2.66-2.65V4.29a2.66 2.66 0 0 1 2.66-2.66h7.49a2.66 2.66 0 0 1 2.65 2.66z" fill="url(#a)"/><circle cx="8.03" cy="6.75" r="2.86" fill="#fff"/><path d="M12.23 9.48a1.1 1.1 0 0 0-1.23.23A5.42 5.42 0 0 1 8 11a5.47 5.47 0 0 1-2.92-1.29 1.1 1.1 0 0 0-1.25-.23 3.64 3.64 0 0 0-1 1.84v.93a1 1 0 0 0 1 1h8.47a1 1 0 0 0 1-1v-.93a3.65 3.65 0 0 0-1.07-1.84z" fill="#fff"/><path d="M2.41 11.21V9.73a.71.71 0 0 1 .7-.7h1.83a.72.72 0 0 1 .71.7v1.48h1.08V9.73A1.79 1.79 0 0 0 4.94 8H3.11a1.78 1.78 0 0 0-1.78 1.73v1.48z" fill="url(#b)"/><path d="M7.37 15.57a.36.36 0 0 1-.36.36h-6a.36.36 0 0 1-.36-.36V11.4a.36.36 0 0 1 .4-.4H7a.37.37 0 0 1 .36.37v4.17z" fill="url(#c)"/></svg>